<svg xmlns="http://www.w3.org/2000/svg" width="24" height="24"><title>perm_camera_mic</title><path d="M14.423 13.183V8.394q0-.958-.732-1.69t-1.69-.732-1.69.732-.732 1.69v4.789q0 .958.732 1.69t1.69.732 1.69-.732.732-1.69zm7.211-9.578q.958 0 1.662.704T24 5.971v14.423q0 .958-.704 1.69t-1.662.732h-8.451v-2.535q2.535-.451 4.282-2.451t1.747-4.648h-2.423q0 1.972-1.408 3.409t-3.38 1.437-3.38-1.437-1.408-3.409H4.79q0 2.648 1.747 4.648t4.282 2.451v2.535H2.368q-.958 0-1.662-.732t-.704-1.69V5.971q0-.958.704-1.662t1.662-.704h3.831l2.197-2.423h7.211l2.197 2.423h3.831z"/></svg>